<?xml version="1.0" encoding="utf-8"?>
<!-- Generator: Adobe Illustrator 17.1.0, SVG Export Plug-In . SVG Version: 6.00 Build 0)  -->
<!DOCTYPE svg PUBLIC "-//W3C//DTD SVG 1.1//EN" "http://www.w3.org/Graphics/SVG/1.1/DTD/svg11.dtd">
<svg version="1.1" id="mobile-graphs" xmlns="http://www.w3.org/2000/svg" xmlns:xlink="http://www.w3.org/1999/xlink" x="0px"
	 y="0px" viewBox="0 0 565.543 1010" enable-background="new 0 0 565.543 1010" xml:space="preserve">
<g>
	<path fill="#323B5A" d="M460.5254,0H104.981C47.2901,0,0,47.272,0,104.9814v799.9659C0,962.6563,47.2901,1010,104.981,1010
		h355.5444c57.7451,0,105.0176-47.3437,105.0176-105.0527V104.9814C565.543,47.272,518.2705,0,460.5254,0z M299.5928,68.6128
		c0,9.3252-7.5322,16.9287-16.7495,16.9287c-9.4688,0-16.8936-7.6035-16.8936-16.9287c0-9.1816,7.4248-16.7857,16.8936-16.7857
		C292.0606,51.8271,299.5928,59.4312,299.5928,68.6128z M347.4199,939.8809c0,7.1015-5.8281,12.8398-12.9296,12.8398H231.0698
		c-7.1552,0-12.9658-5.7383-12.9658-12.8398v-6.4922c0-7.0645,5.8106-12.9112,12.9658-12.9112h103.4205
		c7.1015,0,12.9296,5.8467,12.9296,12.9112V939.8809z M510.0215,864.9199h-454.5V144.9727h454.5V864.9199z"/>
	<g>
		<path fill="#323B5A" d="M211.9351,536.7061v203.0761c0,7.7822-6.3843,14.1494-14.1675,14.1494h-66.0928
			c-7.8188,0-14.1762-6.3672-14.1762-14.1494V536.7061c0-7.8008,6.3574-14.1495,14.1762-14.1495h66.0928
			C205.5508,522.5566,211.9351,528.9053,211.9351,536.7061z"/>
		<path fill="#323B5A" d="M329.9981,465.8877v273.8945c0,7.7822-6.3926,14.1494-14.1582,14.1494h-66.1197
			c-7.7739,0-14.1582-6.3672-14.1582-14.1494V465.8877c0-7.7651,6.3843-14.1494,14.1582-14.1494h66.1197
			C323.6055,451.7383,329.9981,458.1226,329.9981,465.8877z"/>
		<path fill="#323B5A" d="M448.044,395.0337v344.7485c0,7.7822-6.3575,14.1494-14.1582,14.1494h-66.1104
			c-7.8105,0-14.1582-6.3672-14.1582-14.1494V395.0337c0-7.7651,6.3477-14.1494,14.1582-14.1494h66.1104
			C441.6865,380.8843,448.044,387.2686,448.044,395.0337z"/>
	</g>
</g>
</svg>
