<?xml version="1.0" ?><svg viewBox="0 0 48 48" xmlns="http://www.w3.org/2000/svg" xmlns:xlink="http://www.w3.org/1999/xlink"><defs><style>.cls-1{fill:url(#linear-gradient);}.cls-2{fill:url(#linear-gradient-2);}.cls-3{fill:url(#linear-gradient-3);}.cls-4{fill:url(#linear-gradient-4);}.cls-5{fill:url(#linear-gradient-5);}.cls-6{fill:url(#linear-gradient-6);}.cls-7{fill:url(#linear-gradient-7);}.cls-8{fill:url(#linear-gradient-8);}.cls-9{fill:url(#linear-gradient-9);}.cls-10{fill:url(#linear-gradient-10);}.cls-11{fill:url(#linear-gradient-11);}.cls-12{fill:url(#linear-gradient-12);}.cls-13{fill:url(#linear-gradient-13);}.cls-14{fill:url(#linear-gradient-14);}.cls-15{fill:url(#linear-gradient-15);}.cls-16{fill:url(#linear-gradient-16);}.cls-17{fill:#fff;}</style><linearGradient gradientUnits="userSpaceOnUse" id="linear-gradient" x1="23.81" x2="23.81" y1="22.1" y2="40.01"><stop offset="0.18" stop-color="#ffc308"/><stop offset="1" stop-color="#de9908"/></linearGradient><linearGradient gradientUnits="userSpaceOnUse" id="linear-gradient-2" x1="28.17" x2="39.81" y1="20.93" y2="20.93"><stop offset="0.18" stop-color="#e5ad00"/><stop offset="1" stop-color="#c68600"/></linearGradient><linearGradient id="linear-gradient-3" x1="23.81" x2="23.81" xlink:href="#linear-gradient-2" y1="15.29" y2="22.38"/><linearGradient id="linear-gradient-4" x1="23.72" x2="23.93" xlink:href="#linear-gradient" y1="15.77" y2="23.75"/><linearGradient id="linear-gradient-5" x1="15.31" x2="15.31" xlink:href="#linear-gradient" y1="37.24" y2="32.81"/><linearGradient id="linear-gradient-6" x1="21.31" x2="21.31" xlink:href="#linear-gradient" y1="37.24" y2="32.81"/><linearGradient id="linear-gradient-7" x1="27.31" x2="27.31" xlink:href="#linear-gradient" y1="37.24" y2="32.81"/><linearGradient id="linear-gradient-8" x1="33.31" x2="33.31" xlink:href="#linear-gradient" y1="37.24" y2="32.81"/><linearGradient gradientUnits="userSpaceOnUse" id="linear-gradient-9" x1="15.31" x2="15.31" y1="27.48" y2="36.15"><stop offset="0.18" stop-color="#8f6500"/><stop offset="1" stop-color="#774800"/></linearGradient><linearGradient id="linear-gradient-10" x1="21.31" x2="21.31" xlink:href="#linear-gradient-9" y1="27.48" y2="36.15"/><linearGradient id="linear-gradient-11" x1="27.31" x2="27.31" xlink:href="#linear-gradient-9" y1="27.48" y2="36.15"/><linearGradient id="linear-gradient-12" x1="33.31" x2="33.31" xlink:href="#linear-gradient-9" y1="27.48" y2="36.15"/><linearGradient gradientTransform="translate(-5.61 15.42) rotate(-45)" gradientUnits="userSpaceOnUse" id="linear-gradient-13" x1="14.69" x2="16.82" y1="13.36" y2="15.49"><stop offset="0" stop-color="#4d4d4d"/><stop offset="0.18" stop-color="gray"/><stop offset="1" stop-color="#4d4d4d"/></linearGradient><linearGradient gradientTransform="translate(44.06 47.2) rotate(-135)" id="linear-gradient-14" x1="32.88" x2="30.78" xlink:href="#linear-gradient-13" y1="13.41" y2="15.5"/><linearGradient gradientUnits="userSpaceOnUse" id="linear-gradient-15" x1="35.89" x2="35.89" y1="13.38" y2="22.22"><stop offset="0" stop-color="#7db700"/><stop offset="1" stop-color="#618e00"/></linearGradient><linearGradient gradientUnits="userSpaceOnUse" id="linear-gradient-16" x1="35.89" x2="35.89" y1="14.11" y2="21.79"><stop offset="0" stop-color="#8ed000"/><stop offset="1" stop-color="#70a300"/></linearGradient></defs><title/><g id="icons"><g data-name="Layer 3" id="Layer_3"><path class="cls-1" d="M7.81,21.47h32a0,0,0,0,1,0,0v13a5,5,0,0,1-5,5h-22a5,5,0,0,1-5-5v-13A0,0,0,0,1,7.81,21.47Z"/><path class="cls-2" d="M35.8,13.3a7.63,7.63,0,1,0,0,15.25,7.54,7.54,0,0,0,4-1.15V14.45A7.63,7.63,0,0,0,35.8,13.3Z"/><rect class="cls-3" height="2" width="32" x="7.81" y="21.47"/><rect class="cls-4" height="5" rx="2.5" ry="2.5" width="36" x="5.81" y="16.47"/><rect class="cls-5" height="9" rx="1.5" ry="1.5" width="3" x="13.81" y="27.47"/><rect class="cls-6" height="9" rx="1.5" ry="1.5" width="3" x="19.81" y="27.47"/><rect class="cls-7" height="9" rx="1.5" ry="1.5" width="3" x="25.81" y="27.47"/><rect class="cls-8" height="9" rx="1.5" ry="1.5" width="3" x="31.81" y="27.47"/><rect class="cls-9" height="9" rx="1.5" ry="1.5" width="3" x="13.81" y="26.47"/><rect class="cls-10" height="9" rx="1.5" ry="1.5" width="3" x="19.81" y="26.47"/><rect class="cls-11" height="9" rx="1.5" ry="1.5" width="3" x="25.81" y="26.47"/><rect class="cls-12" height="9" rx="1.5" ry="1.5" width="3" x="31.81" y="26.47"/><rect class="cls-13" height="15.59" rx="1.5" ry="1.5" transform="translate(14.87 -6.94) rotate(45)" width="3" x="14.31" y="6.68"/><rect class="cls-14" height="15.59" rx="1.5" ry="1.5" transform="translate(64.53 2.22) rotate(135)" width="3" x="30.31" y="6.68"/><circle class="cls-15" cx="35.89" cy="18.93" r="7.62"/><path class="cls-16" d="M35.89,25.55a6.63,6.63,0,1,1,6.63-6.62,6.63,6.63,0,0,1-6.63,6.62Z"/><path class="cls-17" d="M35.37,22.59a4.86,4.86,0,0,1-.56,0,4.33,4.33,0,0,1-.5-.08,4.27,4.27,0,0,1-.48-.13c-.16-.06-.34-.12-.52-.2a4.21,4.21,0,0,1,.14-.76c.06-.26.15-.53.24-.82a6.22,6.22,0,0,0,.89.3,2.94,2.94,0,0,0,.76.1,1.59,1.59,0,0,0,.8-.17.58.58,0,0,0,.28-.54.56.56,0,0,0-.24-.49,3.36,3.36,0,0,0-.6-.32L35,19.22a5.59,5.59,0,0,1-.6-.3,1.89,1.89,0,0,1-.48-.4,1.79,1.79,0,0,1-.33-.55,2.49,2.49,0,0,1-.11-.76A2.08,2.08,0,0,1,34,15.75,2.35,2.35,0,0,1,35.37,15v-.93A1.3,1.3,0,0,1,35.7,14L36,14l.28,0a1.14,1.14,0,0,1,.33.07V15a4.7,4.7,0,0,1,.73.14,7.68,7.68,0,0,1,.79.24,4.87,4.87,0,0,1-.43,1.48,4.19,4.19,0,0,0-.69-.26,3.12,3.12,0,0,0-.89-.11l-.27,0a.73.73,0,0,0-.24.07.44.44,0,0,0-.17.16.4.4,0,0,0-.07.26.52.52,0,0,0,.21.45,1.77,1.77,0,0,0,.47.25l.58.22a5.89,5.89,0,0,1,.67.3,2.06,2.06,0,0,1,.55.42,1.71,1.71,0,0,1,.38.61,2.62,2.62,0,0,1,.14.9,2.24,2.24,0,0,1-1.76,2.29v1.23a1.6,1.6,0,0,1-.33.07H35.7a1.94,1.94,0,0,1-.33-.07Z"/></g></g></svg>